{"accessors":[{"bufferView":2,"componentType":5126,"count":349,"max":[17.174287796020508,325.0794677734375,178.0644989013672],"min":[-24.719301223754883,252.17037963867188,137.8423614501953],"type":"VEC3"},{"bufferView":2,"byteOffset":4188,"componentType":5126,"count":349,"max":[1.0,0.9998905062675476,0.9892169237136841],"min":[-1.0,-0.9912978410720825,-0.997119665145874],"type":"VEC3"},{"bufferView":3,"componentType":5126,"count":349,"max":[1.0,0.997119665145874,0.9708268642425537,1.0],"min":[-0.9998958110809326,-0.9970604181289673,-0.9696753621101379,-1.0],"type":"VEC4"},{"bufferView":1,"componentType":5126,"count":349,"max":[0.9887368679046631,0.9917601943016052],"min":[0.5183985829353333,0.013172745704650879],"type":"VEC2"},{"bufferView":0,"componentType":5125,"count":1488,"type":"SCALAR"},{"bufferView":2,"byteOffset":8376,"componentType":5126,"count":1891,"max":[624.6141967773438,409.3273010253906,243.15139770507812],"min":[-624.6141967773438,42.65425491333008,26.208839416503906],"type":"VEC3"},{"bufferView":2,"byteOffset":31068,"componentType":5126,"count":1891,"max":[1.0,1.0,1.0],"min":[-1.0,-1.0,-1.0],"type":"VEC3"},{"bufferView":3,"byteOffset":5584,"componentType":5126,"count":1891,"max":[1.0,1.0,1.0,1.0],"min":[-0.9999896287918091,-1.0,-1.0,-1.0],"type":"VEC4"},{"bufferView":1,"byteOffset":2792,"componentType":5126,"count":1891,"max":[0.9959160089492798,0.9741077423095703],"min":[0.00737760029733181,0.012099385261535645],"type":"VEC2"},{"bufferView":0,"byteOffset":5952,"componentType":5125,"count":7671,"type":"SCALAR"},{"bufferView":2,"byteOffset":53760,"componentType":5126,"count":1468,"max":[65.20171356201172,301.7170104980469,226.22482299804688],"min":[-65.20171356201172,-8.518514633178711,73.12519836425781],"type":"VEC3"},{"bufferView":2,"byteOffset":71376,"componentType":5126,"count":1468,"max":[0.9999915361404419,0.9999523162841797,0.9999195337295532],"min":[-0.9999915361404419,-0.999990701675415,-0.999993622303009],"type":"VEC3"},{"bufferView":3,"byteOffset":35840,"componentType":5126,"count":1468,"max":[0.997696042060852,0.9995720386505127,0.999990701675415,1.0],"min":[-0.9976961016654968,-0.9999966025352478,-0.9945618510246277,-1.0],"type":"VEC4"},{"bufferView":1,"byteOffset":17920,"componentType":5126,"count":1468,"max":[0.9889659881591797,0.9935349822044373],"min":[0.011312000453472137,0.012649059295654297],"type":"VEC2"},{"bufferView":0,"byteOffset":36636,"componentType":5125,"count":6540,"type":"SCALAR"},{"bufferView":2,"byteOffset":88992,"componentType":5126,"count":2979,"max":[634.9798583984375,373.6776123046875,234.59339904785156],"min":[-635.2756958007812,-427.0766296386719,11.499908447265625],"type":"VEC3"},{"bufferView":2,"byteOffset":124740,"componentType":5126,"count":2979,"max":[1.0,1.0,1.0],"min":[-1.0,-1.0,-1.0],"type":"VEC3"},{"bufferView":3,"byteOffset":59328,"componentType":5126,"count":2979,"max":[1.0,1.0,0.999439001083374,1.0],"min":[-1.0,-1.0,-1.0,-1.0],"type":"VEC4"},{"bufferView":1,"byteOffset":29664,"componentType":5126,"count":2979,"max":[0.997981071472168,0.9988260865211487],"min":[0.08286046236753464,0.003945350646972656],"type":"VEC2"},{"bufferView":0,"byteOffset":62796,"componentType":5125,"count":12024,"type":"SCALAR"},{"bufferView":2,"byteOffset":160488,"componentType":5126,"count":2612,"max":[39.52247619628906,272.72479248046875,189.95697021484375],"min":[-35.3817253112793,54.209503173828125,80.82720184326172],"type":"VEC3"},{"bufferView":2,"byteOffset":191832,"componentType":5126,"count":2612,"max":[1.0,1.0,1.0],"min":[-1.0,-1.0,-1.0],"type":"VEC3"},{"bufferView":3,"byteOffset":106992,"componentType":5126,"count":2612,"max":[1.0,1.0,1.0,1.0],"min":[-1.0,-0.9996946454048157,-1.0,-1.0],"type":"VEC4"},{"bufferView":1,"byteOffset":53496,"componentType":5126,"count":2612,"max":[0.635824978351593,0.9980000257492065],"min":[0.0020000000949949026,0.001999974250793457],"type":"VEC2"},{"bufferView":0,"byteOffset":110892,"componentType":5125,"count":8424,"type":"SCALAR"},{"bufferView":2,"byteOffset":223176,"componentType":5126,"count":2246,"max":[65.00947570800781,298.8133239746094,229.59759521484375],"min":[-65.00947570800781,-7.336174011230469,152.63624572753906],"type":"VEC3"},{"bufferView":2,"byteOffset":250128,"componentType":5126,"count":2246,"max":[1.0,1.0,0.9999979138374329],"min":[-1.0,-1.0,-1.0],"type":"VEC3"},{"bufferView":3,"byteOffset":148784,"componentType":5126,"count":2246,"max":[0.9999995231628418,0.9999476671218872,0.9993911385536194,1.0],"min":[-1.0,-0.9999997615814209,-0.9999623894691467,-1.0],"type":"VEC4"},{"bufferView":1,"byteOffset":74392,"componentType":5126,"count":2246,"max":[0.9855089783668518,0.9864850044250488],"min":[0.004763999953866005,0.004117012023925781],"type":"VEC2"},{"bufferView":1,"byteOffset":92360,"componentType":5126,"count":2246,"max":[0.9855089783668518,0.9864850044250488],"min":[0.004763999953866005,0.004117012023925781],"type":"VEC2"},{"bufferView":0,"byteOffset":144588,"componentType":5125,"count":9696,"type":"SCALAR"},{"bufferView":2,"byteOffset":277080,"componentType":5126,"count":4738,"max":[602.2554321289062,327.1677551269531,274.36004638671875],"min":[-602.2554321289062,-427.3590087890625,64.81830596923828],"type":"VEC3"},{"bufferView":2,"byteOffset":333936,"componentType":5126,"count":4738,"max":[0.9999985694885254,1.0,1.0],"min":[-0.9999985694885254,-0.9998058080673218,-0.9999616742134094],"type":"VEC3"},{"bufferView":3,"byteOffset":184720,"componentType":5126,"count":4738,"max":[1.0,0.9999992847442627,1.0,1.0],"min":[-1.0,-0.9999794363975525,-1.0,-1.0],"type":"VEC4"},{"bufferView":1,"byteOffset":110328,"componentType":5126,"count":4738,"max":[0.9934589862823486,0.9917029738426208],"min":[0.000534999999217689,0.0010200738906860352],"type":"VEC2"},{"bufferView":0,"byteOffset":183372,"componentType":5125,"count":22272,"type":"SCALAR"},{"bufferView":2,"byteOffset":390792,"componentType":5126,"count":655,"max":[9.354743003845215,-347.6229553222656,293.06219482421875],"min":[-9.354743003845215,-464.8839416503906,142.29281616210938],"type":"VEC3"},{"bufferView":2,"byteOffset":398652,"componentType":5126,"count":655,"max":[0.9997863173484802,0.9924788475036621,1.0],"min":[-0.9997863173484802,-0.9917616248130798,-1.0],"type":"VEC3"},{"bufferView":3,"byteOffset":260528,"componentType":5126,"count":655,"max":[0.9998234510421753,0.9999310374259949,0.9381060004234314,1.0],"min":[-1.0,-0.5094136595726013,-0.9875998497009277,1.0],"type":"VEC4"},{"bufferView":1,"byteOffset":148232,"componentType":5126,"count":655,"max":[0.9691575765609741,0.9911417961120605],"min":[0.5212331414222717,0.31809520721435547],"type":"VEC2"},{"bufferView":0,"byteOffset":272460,"componentType":5125,"count":2976,"type":"SCALAR"},{"bufferView":2,"byteOffset":406512,"componentType":5126,"count":882,"max":[199.4294891357422,-317.7948303222656,140.57640075683594],"min":[-199.4294891357422,-396.1916809082031,133.8609619140625],"type":"VEC3"},{"bufferView":2,"byteOffset":417096,"componentType":5126,"count":882,"max":[0.9998775720596313,1.0,0.9997842311859131],"min":[-0.9998775124549866,-0.9998719096183777,-0.9997649788856506],"type":"VEC3"},{"bufferView":3,"byteOffset":271008,"componentType":5126,"count":882,"max":[0.9999792575836182,0.9998827576637268,0.9999619722366333,1.0],"min":[-0.9999627470970154,-0.7235603928565979,-0.9999203681945801,-1.0],"type":"VEC4"},{"bufferView":1,"byteOffset":153472,"componentType":5126,"count":882,"max":[0.6045593023300171,0.966623067855835],"min":[0.014458522200584412,0.42680978775024414],"type":"VEC2"},{"bufferView":0,"byteOffset":284364,"componentType":5125,"count":4416,"type":"SCALAR"},{"bufferView":2,"byteOffset":427680,"componentType":5126,"count":560,"max":[130.14706420898438,463.8363952636719,160.40113830566406],"min":[-128.642822265625,414.31439208984375,124.5754165649414],"type":"VEC3"},{"bufferView":2,"byteOffset":434400,"componentType":5126,"count":560,"max":[1.0,0.9998919367790222,1.0],"min":[-1.0,-0.9999173879623413,-1.0],"type":"VEC3"},{"bufferView":3,"byteOffset":285120,"componentType":5126,"count":560,"max":[0.9845133423805237,0.9999859929084778,0.9999565482139587,1.0],"min":[-0.9929627776145935,-0.9773064255714417,-0.9168717265129089,-1.0],"type":"VEC4"},{"bufferView":1,"byteOffset":160528,"componentType":5126,"count":560,"max":[0.9941975474357605,0.9666244387626648],"min":[0.011740367859601974,0.034726858139038086],"type":"VEC2"},{"bufferView":0,"byteOffset":302028,"componentType":5125,"count":1920,"type":"SCALAR"},{"bufferView":2,"byteOffset":441120,"componentType":5126,"count":884,"max":[63.35212326049805,426.8216247558594,177.24143981933594],"min":[-63.35212326049805,314.03155517578125,70.8675537109375],"type":"VEC3"},{"bufferView":2,"byteOffset":451728,"componentType":5126,"count":884,"max":[0.999784529209137,0.9980911016464233,0.9996797442436218],"min":[-0.999784529209137,-1.0,-0.999311625957489],"type":"VEC3"},{"bufferView":3,"byteOffset":294080,"componentType":5126,"count":884,"max":[0.9999653100967407,0.9977704286575317,0.998969554901123,1.0],"min":[-0.9999944567680359,-0.9910485744476318,-0.9993431568145752,-1.0],"type":"VEC4"},{"bufferView":1,"byteOffset":165008,"componentType":5126,"count":884,"max":[0.9756788015365601,0.7422462701797485],"min":[0.005125292576849461,0.004744768142700195],"type":"VEC2"},{"bufferView":0,"byteOffset":309708,"componentType":5125,"count":4029,"type":"SCALAR"},{"bufferView":2,"byteOffset":462336,"componentType":5126,"count":1592,"max":[59.4390869140625,426.0980529785156,151.4800262451172],"min":[-59.4390869140625,347.9828796386719,84.35162353515625],"type":"VEC3"},{"bufferView":2,"byteOffset":481440,"componentType":5126,"count":1592,"max":[1.0,1.0,1.0],"min":[-1.0,-0.999935507774353,-0.9999999403953552],"type":"VEC3"},{"bufferView":3,"byteOffset":308224,"componentType":5126,"count":1592,"max":[0.9998806118965149,0.9924275279045105,0.999708354473114,1.0],"min":[-0.9998806118965149,-0.9977198839187622,-0.9999492764472961,-1.0],"type":"VEC4"},{"bufferView":1,"byteOffset":172080,"componentType":5126,"count":1592,"max":[0.796025812625885,0.9252162575721741],"min":[0.2805890440940857,0.010342121124267578],"type":"VEC2"},{"bufferView":0,"byteOffset":325824,"componentType":5125,"count":7644,"type":"SCALAR"},{"bufferView":4,"componentType":5126,"count":1,"max":[0.0],"min":[0.0],"type":"SCALAR"},{"bufferView":5,"componentType":5126,"count":1,"max":[3.790933609008789,-159.85511779785156,256.2749328613281],"min":[3.790933609008789,-159.85511779785156,256.2749328613281],"type":"VEC3"},{"bufferView":4,"byteOffset":4,"componentType":5126,"count":1,"max":[0.0],"min":[0.0],"type":"SCALAR"},{"bufferView":5,"byteOffset":12,"componentType":5126,"count":1,"max":[1.0,1.0,1.0],"min":[1.0,1.0,1.0],"type":"VEC3"},{"bufferView":4,"byteOffset":8,"componentType":5126,"count":1,"max":[0.0],"min":[0.0],"type":"SCALAR"},{"bufferView":6,"componentType":5126,"count":1,"max":[-0.7071067690849304,-0.0,0.0,0.7071067690849304],"min":[-0.7071067690849304,-0.0,0.0,0.7071067690849304],"type":"VEC4"},{"bufferView":4,"byteOffset":12,"componentType":5126,"count":2,"max":[2.9666666984558105],"min":[0.0],"type":"SCALAR"},{"bufferView":5,"byteOffset":24,"componentType":5126,"count":2,"max":[-3.790933609008789,17.35857391357422,-154.68472290039062],"min":[-3.790933609008789,17.35857391357422,-154.68472290039062],"type":"VEC3"},{"bufferView":4,"byteOffset":20,"componentType":5126,"count":2,"max":[2.9666666984558105],"min":[0.0],"type":"SCALAR"},{"bufferView":5,"byteOffset":48,"componentType":5126,"count":2,"max":[1.0,1.0,1.0],"min":[1.0,1.0,1.0],"type":"VEC3"},{"bufferView":4,"byteOffset":28,"componentType":5126,"count":90,"max":[2.9666666984558105],"min":[0.0],"type":"SCALAR"},{"bufferView":6,"byteOffset":16,"componentType":5126,"count":90,"max":[1.0168959749671672e-17,4.071380907034471e-18,0.32556816935539246,1.0],"min":[-9.356335861538352e-18,-5.516513000049832e-18,0.0,0.9455185532569885],"type":"VEC4"},{"bufferView":4,"byteOffset":388,"componentType":5126,"count":1,"max":[0.0],"min":[0.0],"type":"SCALAR"},{"bufferView":5,"byteOffset":72,"componentType":5126,"count":1,"max":[2.2794266474335245e-15,-142.4965362548828,101.5901870727539],"min":[2.2794266474335245e-15,-142.4965362548828,101.5901870727539],"type":"VEC3"},{"bufferView":4,"byteOffset":392,"componentType":5126,"count":1,"max":[0.0],"min":[0.0],"type":"SCALAR"},{"bufferView":5,"byteOffset":84,"componentType":5126,"count":1,"max":[1.0,1.0,1.0],"min":[1.0,1.0,1.0],"type":"VEC3"},{"bufferView":4,"byteOffset":396,"componentType":5126,"count":1,"max":[0.0],"min":[0.0],"type":"SCALAR"},{"bufferView":6,"byteOffset":1456,"componentType":5126,"count":1,"max":[-0.7071067690849304,-0.0,0.0,0.7071067690849304],"min":[-0.7071067690849304,-0.0,0.0,0.7071067690849304],"type":"VEC4"},{"bufferView":4,"byteOffset":400,"componentType":5126,"count":1,"max":[0.0],"min":[0.0],"type":"SCALAR"},{"bufferView":5,"byteOffset":96,"componentType":5126,"count":1,"max":[8.881784197001252e-16,-279.4250793457031,-383.0163269042969],"min":[8.881784197001252e-16,-279.4250793457031,-383.0163269042969],"type":"VEC3"},{"bufferView":4,"byteOffset":404,"componentType":5126,"count":1,"max":[0.0],"min":[0.0],"type":"SCALAR"},{"bufferView":5,"byteOffset":108,"componentType":5126,"count":1,"max":[1.0,1.0,1.0],"min":[1.0,1.0,1.0],"type":"VEC3"},{"bufferView":4,"byteOffset":408,"componentType":5126,"count":1,"max":[0.0],"min":[0.0],"type":"SCALAR"},{"bufferView":6,"byteOffset":1472,"componentType":5126,"count":1,"max":[-0.7071067690849304,-2.991718922136117e-19,1.7558006583701177e-18,0.7071067690849304],"min":[-0.7071067690849304,-2.991718922136117e-19,1.7558006583701177e-18,0.7071067690849304],"type":"VEC4"},{"bufferView":4,"byteOffset":412,"componentType":5126,"count":88,"max":[2.9666666984558105],"min":[0.0],"type":"SCALAR"},{"bufferView":5,"byteOffset":120,"componentType":5126,"count":88,"max":[3.552713678800501e-15,136.9285430908203,484.60650634765625],"min":[-3.552713678800501e-15,136.9285430908203,484.60650634765625],"type":"VEC3"},{"bufferView":4,"byteOffset":764,"componentType":5126,"count":2,"max":[2.9666666984558105],"min":[0.0],"type":"SCALAR"},{"bufferView":5,"byteOffset":1176,"componentType":5126,"count":2,"max":[1.0,1.0,1.0],"min":[1.0,1.0,1.0],"type":"VEC3"},{"bufferView":4,"byteOffset":772,"componentType":5126,"count":90,"max":[2.9666666984558105],"min":[0.0],"type":"SCALAR"},{"bufferView":6,"byteOffset":1488,"componentType":5126,"count":90,"max":[-0.0108245350420475,8.195579721359536e-05,0.007570639252662659,0.9999127388000488],"min":[-0.011443168856203556,-0.08706650137901306,0.0065984101966023445,0.9961149096488953],"type":"VEC4"},{"bufferView":4,"byteOffset":1132,"componentType":5126,"count":1,"max":[0.0],"min":[0.0],"type":"SCALAR"},{"bufferView":5,"byteOffset":1200,"componentType":5126,"count":1,"max":[2.525757381022231e-15,-142.4965362548828,-319.885498046875],"min":[2.525757381022231e-15,-142.4965362548828,-319.885498046875],"type":"VEC3"},{"bufferView":4,"byteOffset":1136,"componentType":5126,"count":1,"max":[0.0],"min":[0.0],"type":"SCALAR"},{"bufferView":5,"byteOffset":1212,"componentType":5126,"count":1,"max":[1.0,1.0,1.0],"min":[1.0,1.0,1.0],"type":"VEC3"},{"bufferView":4,"byteOffset":1140,"componentType":5126,"count":1,"max":[0.0],"min":[0.0],"type":"SCALAR"},{"bufferView":6,"byteOffset":2928,"componentType":5126,"count":1,"max":[-0.7071067690849304,-1.341631765104517e-19,-1.7249551450268035e-19,0.7071067690849304],"min":[-0.7071067690849304,-1.341631765104517e-19,-1.7249551450268035e-19,0.7071067690849304],"type":"VEC4"},{"bufferView":4,"byteOffset":1144,"componentType":5126,"count":87,"max":[2.9666666984558105],"min":[0.0],"type":"SCALAR"},{"bufferView":5,"byteOffset":1224,"componentType":5126,"count":87,"max":[1.7763568394002505e-15,5.684341886080802e-14,421.4756774902344],"min":[-1.7763568394002505e-15,-2.842170943040401e-14,421.4756774902344],"type":"VEC3"},{"bufferView":4,"byteOffset":1492,"componentType":5126,"count":2,"max":[2.9666666984558105],"min":[0.0],"type":"SCALAR"},{"bufferView":5,"byteOffset":2268,"componentType":5126,"count":2,"max":[1.0,1.0,1.0],"min":[1.0,1.0,1.0],"type":"VEC3"},{"bufferView":4,"byteOffset":1500,"componentType":5126,"count":90,"max":[2.9666666984558105],"min":[0.0],"type":"SCALAR"},{"bufferView":6,"byteOffset":2944,"componentType":5126,"count":90,"max":[0.03489987552165985,-0.0005889841704629362,-0.0006175952730700374,0.9999995827674866],"min":[-0.08715531975030899,-0.0006650629802607,-0.000690209271851927,0.9961943030357361],"type":"VEC4"},{"bufferView":4,"byteOffset":1860,"componentType":5126,"count":1,"max":[0.0],"min":[0.0],"type":"SCALAR"},{"bufferView":5,"byteOffset":2292,"componentType":5126,"count":1,"max":[-0.06975482404232025,-142.4965362548828,466.1883239746094],"min":[-0.06975482404232025,-142.4965362548828,466.1883239746094],"type":"VEC3"},{"bufferView":4,"byteOffset":1864,"componentType":5126,"count":1,"max":[0.0],"min":[0.0],"type":"SCALAR"},{"bufferView":5,"byteOffset":2304,"componentType":5126,"count":1,"max":[1.0,1.0,1.0],"min":[1.0,1.0,1.0],"type":"VEC3"},{"bufferView":4,"byteOffset":1868,"componentType":5126,"count":1,"max":[0.0],"min":[0.0],"type":"SCALAR"},{"bufferView":6,"byteOffset":4384,"componentType":5126,"count":1,"max":[-0.7071067690849304,-0.0,0.0,0.7071067690849304],"min":[-0.7071067690849304,-0.0,0.0,0.7071067690849304],"type":"VEC4"},{"bufferView":4,"byteOffset":1872,"componentType":5126,"count":78,"max":[2.9666666984558105],"min":[0.0],"type":"SCALAR"},{"bufferView":5,"byteOffset":2316,"componentType":5126,"count":78,"max":[3.552713678800501e-15,0.0,1.7053025658242404e-13],"min":[-1.7763568394002505e-15,-2.842170943040401e-14,1.1368683772161603e-13],"type":"VEC3"},{"bufferView":4,"byteOffset":2184,"componentType":5126,"count":2,"max":[2.9666666984558105],"min":[0.0],"type":"SCALAR"},{"bufferView":5,"byteOffset":3252,"componentType":5126,"count":2,"max":[1.0,1.0,1.0],"min":[1.0,1.0,1.0],"type":"VEC3"},{"bufferView":4,"byteOffset":2192,"componentType":5126,"count":90,"max":[2.9666666984558105],"min":[0.0],"type":"SCALAR"},{"bufferView":6,"byteOffset":4400,"componentType":5126,"count":90,"max":[8.845788406942048e-18,1.0044986882545899e-17,0.9997109174728394,1.0],"min":[-1.0427916912237523e-17,-1.547609927461392e-17,-0.8346344232559204,-0.49495330452919006],"type":"VEC4"},{"bufferView":4,"byteOffset":2552,"componentType":5126,"count":1,"max":[0.0],"min":[0.0],"type":"SCALAR"},{"bufferView":5,"byteOffset":3276,"componentType":5126,"count":1,"max":[-0.06975482404232025,-142.4965362548828,466.1883239746094],"min":[-0.06975482404232025,-142.4965362548828,466.1883239746094],"type":"VEC3"},{"bufferView":4,"byteOffset":2556,"componentType":5126,"count":1,"max":[0.0],"min":[0.0],"type":"SCALAR"},{"bufferView":5,"byteOffset":3288,"componentType":5126,"count":1,"max":[1.0,1.0,1.0],"min":[1.0,1.0,1.0],"type":"VEC3"},{"bufferView":4,"byteOffset":2560,"componentType":5126,"count":1,"max":[0.0],"min":[0.0],"type":"SCALAR"},{"bufferView":6,"byteOffset":5840,"componentType":5126,"count":1,"max":[-0.7071067690849304,-0.0,0.0,0.7071067690849304],"min":[-0.7071067690849304,-0.0,0.0,0.7071067690849304],"type":"VEC4"},{"bufferView":4,"byteOffset":2564,"componentType":5126,"count":90,"max":[2.9666666984558105],"min":[0.0],"type":"SCALAR"},{"bufferView":5,"byteOffset":3300,"componentType":5126,"count":90,"max":[-0.22930659353733063,1.9403319358825684,-364.59814453125],"min":[-1.4355602264404297,-0.16049087047576904,-364.59814453125],"type":"VEC3"},{"bufferView":4,"byteOffset":2924,"componentType":5126,"count":2,"max":[2.9666666984558105],"min":[0.0],"type":"SCALAR"},{"bufferView":5,"byteOffset":4380,"componentType":5126,"count":2,"max":[1.0,1.0,1.0],"min":[1.0,1.0,1.0],"type":"VEC3"},{"bufferView":4,"byteOffset":2932,"componentType":5126,"count":90,"max":[2.9666666984558105],"min":[0.0],"type":"SCALAR"},{"bufferView":6,"byteOffset":5856,"componentType":5126,"count":90,"max":[1.0408340855860843e-17,8.673617379884035e-19,1.4352126258276865e-17,1.0],"min":[-1.0408340855860843e-17,-8.673617379884035e-19,-1.8079071226195786e-17,1.0],"type":"VEC4"},{"bufferView":4,"byteOffset":3292,"componentType":5126,"count":2,"max":[2.9666666984558105],"min":[0.0],"type":"SCALAR"},{"bufferView":5,"byteOffset":4404,"componentType":5126,"count":2,"max":[0.0,142.4965362548828,-101.5901870727539],"min":[0.0,142.4965362548828,-101.5901870727539],"type":"VEC3"},{"bufferView":4,"byteOffset":3300,"componentType":5126,"count":2,"max":[2.9666666984558105],"min":[0.0],"type":"SCALAR"},{"bufferView":5,"byteOffset":4428,"componentType":5126,"count":2,"max":[1.0,1.0,1.0],"min":[1.0,1.0,1.0],"type":"VEC3"},{"bufferView":4,"byteOffset":3308,"componentType":5126,"count":90,"max":[2.9666666984558105],"min":[0.0],"type":"SCALAR"},{"bufferView":6,"byteOffset":7296,"componentType":5126,"count":90,"max":[0.02418522723019123,0.0,0.04616633057594299,1.0],"min":[0.0,-0.00111806346103549,0.0,0.9986402988433838],"type":"VEC4"},{"bufferView":4,"byteOffset":3668,"componentType":5126,"count":1,"max":[0.0],"min":[0.0],"type":"SCALAR"},{"bufferView":5,"byteOffset":4452,"componentType":5126,"count":1,"max":[0.0,0.0,0.0],"min":[0.0,0.0,0.0],"type":"VEC3"},{"bufferView":4,"byteOffset":3672,"componentType":5126,"count":1,"max":[0.0],"min":[0.0],"type":"SCALAR"},{"bufferView":5,"byteOffset":4464,"componentType":5126,"count":1,"max":[1.0,1.0,1.0],"min":[1.0,1.0,1.0],"type":"VEC3"},{"bufferView":4,"byteOffset":3676,"componentType":5126,"count":1,"max":[0.0],"min":[0.0],"type":"SCALAR"},{"bufferView":6,"byteOffset":8736,"componentType":5126,"count":1,"max":[0.0,0.0,0.0,1.0],"min":[0.0,0.0,0.0,1.0],"type":"VEC4"}],"animations":[{"channels":[{"sampler":0,"target":{"node":6,"path":"translation"}},{"sampler":1,"target":{"node":6,"path":"scale"}},{"sampler":2,"target":{"node":6,"path":"rotation"}},{"sampler":3,"target":{"node":5,"path":"translation"}},{"sampler":4,"target":{"node":5,"path":"scale"}},{"sampler":5,"target":{"node":5,"path":"rotation"}},{"sampler":6,"target":{"node":8,"path":"translation"}},{"sampler":7,"target":{"node":8,"path":"scale"}},{"sampler":8,"target":{"node":8,"path":"rotation"}},{"sampler":9,"target":{"node":16,"path":"translation"}},{"sampler":10,"target":{"node":16,"path":"scale"}},{"sampler":11,"target":{"node":16,"path":"rotation"}},{"sampler":12,"target":{"node":15,"path":"translation"}},{"sampler":13,"target":{"node":15,"path":"scale"}},{"sampler":14,"target":{"node":15,"path":"rotation"}},{"sampler":15,"target":{"node":19,"path":"translation"}},{"sampler":16,"target":{"node":19,"path":"scale"}},{"sampler":17,"target":{"node":19,"path":"rotation"}},{"sampler":18,"target":{"node":18,"path":"translation"}},{"sampler":19,"target":{"node":18,"path":"scale"}},{"sampler":20,"target":{"node":18,"path":"rotation"}},{"sampler":21,"target":{"node":23,"path":"translation"}},{"sampler":22,"target":{"node":23,"path":"scale"}},{"sampler":23,"target":{"node":23,"path":"rotation"}},{"sampler":24,"target":{"node":22,"path":"translation"}},{"sampler":25,"target":{"node":22,"path":"scale"}},{"sampler":26,"target":{"node":22,"path":"rotation"}},{"sampler":27,"target":{"node":25,"path":"translation"}},{"sampler":28,"target":{"node":25,"path":"scale"}},{"sampler":29,"target":{"node":25,"path":"rotation"}},{"sampler":30,"target":{"node":21,"path":"translation"}},{"sampler":31,"target":{"node":21,"path":"scale"}},{"sampler":32,"target":{"node":21,"path":"rotation"}},{"sampler":33,"target":{"node":4,"path":"translation"}},{"sampler":34,"target":{"node":4,"path":"scale"}},{"sampler":35,"target":{"node":4,"path":"rotation"}},{"sampler":36,"target":{"node":3,"path":"translation"}},{"sampler":37,"target":{"node":3,"path":"scale"}},{"sampler":38,"target":{"node":3,"path":"rotation"}}],"name":"Main","samplers":[{"input":61,"interpolation":"LINEAR","output":62},{"input":63,"interpolation":"LINEAR","output":64},{"input":65,"interpolation":"LINEAR","output":66},{"input":67,"interpolation":"LINEAR","output":68},{"input":69,"interpolation":"LINEAR","output":70},{"input":71,"interpolation":"LINEAR","output":72},{"input":73,"interpolation":"LINEAR","output":74},{"input":75,"interpolation":"LINEAR","output":76},{"input":77,"interpolation":"LINEAR","output":78},{"input":79,"interpolation":"LINEAR","output":80},{"input":81,"interpolation":"LINEAR","output":82},{"input":83,"interpolation":"LINEAR","output":84},{"input":85,"interpolation":"LINEAR","output":86},{"input":87,"interpolation":"LINEAR","output":88},{"input":89,"interpolation":"LINEAR","output":90},{"input":91,"interpolation":"LINEAR","output":92},{"input":93,"interpolation":"LINEAR","output":94},{"input":95,"interpolation":"LINEAR","output":96},{"input":97,"interpolation":"LINEAR","output":98},{"input":99,"interpolation":"LINEAR","output":100},{"input":101,"interpolation":"LINEAR","output":102},{"input":103,"interpolation":"LINEAR","output":104},{"input":105,"interpolation":"LINEAR","output":106},{"input":107,"interpolation":"LINEAR","output":108},{"input":109,"interpolation":"LINEAR","output":110},{"input":111,"interpolation":"LINEAR","output":112},{"input":113,"interpolation":"LINEAR","output":114},{"input":115,"interpolation":"LINEAR","output":116},{"input":117,"interpolation":"LINEAR","output":118},{"input":119,"interpolation":"LINEAR","output":120},{"input":121,"interpolation":"LINEAR","output":122},{"input":123,"interpolation":"LINEAR","output":124},{"input":125,"interpolation":"LINEAR","output":126},{"input":127,"interpolation":"LINEAR","output":128},{"input":129,"interpolation":"LINEAR","output":130},{"input":131,"interpolation":"LINEAR","output":132},{"input":133,"interpolation":"LINEAR","output":134},{"input":135,"interpolation":"LINEAR","output":136},{"input":137,"interpolation":"LINEAR","output":138}]}],"asset":{"extras":{"author":"osmosikum (https://sketchfab.com/osmosikum)","license":"CC-BY-4.0 (http://creativecommons.org/licenses/by/4.0/)","source":"https://sketchfab.com/3d-models/plane-cedc8a07370747f7b0d14400cdf2faf9","title":"Plane"},"generator":"Sketchfab-12.66.0","version":"2.0"},"bufferViews":[{"buffer":0,"byteLength":356400,"name":"floatBufferViews","target":34963,"byteOffset":0},{"buffer":0,"byteLength":184816,"byteOffset":356400,"byteStride":8,"name":"floatBufferViews","target":34962},{"buffer":0,"byteLength":500544,"byteOffset":541216,"byteStride":12,"name":"floatBufferViews","target":34962},{"buffer":0,"byteLength":333696,"byteOffset":1041760,"byteStride":16,"name":"floatBufferViews","target":34962},{"buffer":0,"byteLength":3680,"byteOffset":1375456,"name":"floatBufferViews"},{"buffer":0,"byteLength":4476,"byteOffset":1379136,"byteStride":12,"name":"floatBufferViews"},{"buffer":0,"byteLength":8752,"byteOffset":1383612,"byteStride":16,"name":"floatBufferViews"}],"buffers":[{"byteLength":1392364,"uri":"cessna-172.bin"}],"images":[{"mimeType":"image/jpeg","uri":"cessna-texture-0.jpg"},{"mimeType":"image/png","uri":"cessna-texture-1.png"},{"mimeType":"image/jpeg","uri":"cessna-texture-2.jpg"},{"mimeType":"image/jpeg","uri":"cessna-texture-3.jpg"},{"mimeType":"image/png","uri":"cessna-texture-4.png"},{"mimeType":"image/jpeg","uri":"cessna-texture-5.jpg"},{"mimeType":"image/jpeg","uri":"cessna-texture-6.jpg"},{"mimeType":"image/png","uri":"cessna-texture-7.png"},{"mimeType":"image/jpeg","uri":"cessna-texture-8.jpg"},{"mimeType":"image/jpeg","uri":"cessna-texture-9.jpg"},{"mimeType":"image/png","uri":"cessna-texture-10.png"},{"mimeType":"image/jpeg","uri":"cessna-texture-11.jpg"},{"mimeType":"image/png","uri":"cessna-texture-12.png"},{"mimeType":"image/png","uri":"cessna-texture-13.png"},{"mimeType":"image/jpeg","uri":"cessna-texture-14.jpg"},{"mimeType":"image/jpeg","uri":"cessna-texture-15.jpg"},{"mimeType":"image/png","uri":"cessna-texture-16.png"},{"mimeType":"image/jpeg","uri":"cessna-texture-17.jpg"}],"materials":[{"doubleSided":true,"name":"seats_and_stuff","normalTexture":{"index":2},"pbrMetallicRoughness":{"baseColorTexture":{"index":0},"metallicRoughnessTexture":{"index":1}}},{"doubleSided":true,"name":"Altbody","normalTexture":{"index":5},"pbrMetallicRoughness":{"baseColorTexture":{"index":3},"metallicFactor":0.56,"metallicRoughnessTexture":{"index":4}}},{"doubleSided":true,"name":"interior","normalTexture":{"index":8},"pbrMetallicRoughness":{"baseColorTexture":{"index":6},"metallicFactor":0.0,"metallicRoughnessTexture":{"index":7}}},{"doubleSided":true,"name":"xtra","normalTexture":{"index":11},"pbrMetallicRoughness":{"baseColorTexture":{"index":9},"metallicRoughnessTexture":{"index":10}}},{"alphaMode":"BLEND","doubleSided":true,"name":"windows","normalTexture":{"index":14},"pbrMetallicRoughness":{"baseColorTexture":{"index":12},"metallicRoughnessTexture":{"index":13}}},{"doubleSided":true,"name":"Main","normalTexture":{"index":17},"pbrMetallicRoughness":{"baseColorTexture":{"index":15},"metallicRoughnessTexture":{"index":16},"roughnessFactor":0.43}}],"meshes":[{"name":"xtras_seats and stuff_0","primitives":[{"attributes":{"NORMAL":1,"POSITION":0,"TANGENT":2,"TEXCOORD_0":3},"indices":4,"material":0,"mode":4}]},{"name":"xtras_2_Altbody_0","primitives":[{"attributes":{"NORMAL":6,"POSITION":5,"TANGENT":7,"TEXCOORD_0":8},"indices":9,"material":1,"mode":4}]},{"name":"xtras_2_interior_0","primitives":[{"attributes":{"NORMAL":11,"POSITION":10,"TANGENT":12,"TEXCOORD_0":13},"indices":14,"material":2,"mode":4}]},{"name":"xtras_2_xtra_0","primitives":[{"attributes":{"NORMAL":16,"POSITION":15,"TANGENT":17,"TEXCOORD_0":18},"indices":19,"material":3,"mode":4}]},{"name":"xtras_2_seats and stuff_0","primitives":[{"attributes":{"NORMAL":21,"POSITION":20,"TANGENT":22,"TEXCOORD_0":23},"indices":24,"material":0,"mode":4}]},{"name":"xtras_2_windows_0","primitives":[{"attributes":{"NORMAL":26,"POSITION":25,"TANGENT":27,"TEXCOORD_0":28,"TEXCOORD_1":29},"indices":30,"material":4,"mode":4}]},{"name":"xtras_2_Main_0","primitives":[{"attributes":{"NORMAL":32,"POSITION":31,"TANGENT":33,"TEXCOORD_0":34},"indices":35,"material":5,"mode":4}]},{"name":"halerorvert_2_Altbody_0","primitives":[{"attributes":{"NORMAL":37,"POSITION":36,"TANGENT":38,"TEXCOORD_0":39},"indices":40,"material":1,"mode":4}]},{"name":"haleror_2_Altbody_0","primitives":[{"attributes":{"NORMAL":42,"POSITION":41,"TANGENT":43,"TEXCOORD_0":44},"indices":45,"material":1,"mode":4}]},{"name":"xtras_3_xtra_0","primitives":[{"attributes":{"NORMAL":47,"POSITION":46,"TANGENT":48,"TEXCOORD_0":49},"indices":50,"material":3,"mode":4}]},{"name":"xtras_4_Altbody_0","primitives":[{"attributes":{"NORMAL":52,"POSITION":51,"TANGENT":53,"TEXCOORD_0":54},"indices":55,"material":1,"mode":4}]},{"name":"xtras_4_xtra_0","primitives":[{"attributes":{"NORMAL":57,"POSITION":56,"TANGENT":58,"TEXCOORD_0":59},"indices":60,"material":3,"mode":4}]}],"nodes":[{"children":[1],"matrix":[0.9669707417488098,-0.019367346540093477,0.2541504204273224,0.0,0.25488728284835815,0.07347427308559439,-0.964175283908844,0.0,-5.204170427930421e-18,0.997109055519104,0.0759839639067652,0.0,-12.939611434936523,-3.361841917037961,-11.494979858398438,1.0],"name":"Sketchfab_model"},{"children":[2],"matrix":[1.0,0.0,0.0,0.0,0.0,0.0,1.0,0.0,0.0,-1.0,0.0,0.0,0.0,0.0,0.0,1.0],"name":"4bbe6bcd6a0d45878e8b1c5271558302.fbx"},{"children":[3],"name":"Object_2"},{"children":[4],"name":"RootNode"},{"children":[5,8,15,18,21],"name":"plane","translation":[0.0,142.4965362548828,-101.5901870727539]},{"children":[6],"name":"Null_1","translation":[-3.790933609008789,17.35857391357422,-154.68472290039062]},{"children":[7],"name":"xtras","rotation":[-0.7071068286895752,-0.0,0.0,0.7071068286895752],"translation":[3.790933609008789,-159.85511779785156,256.2749328613281]},{"mesh":0,"name":"xtras_seats and stuff_0"},{"children":[9,10,11,12,13,14],"name":"xtras_2","rotation":[-0.7071068286895752,-0.0,0.0,0.7071068286895752],"translation":[2.2794266474335245e-15,-142.4965362548828,101.5901870727539]},{"mesh":1,"name":"xtras_2_Altbody_0"},{"mesh":2,"name":"xtras_2_interior_0"},{"mesh":3,"name":"xtras_2_xtra_0"},{"mesh":4,"name":"xtras_2_seats and stuff_0"},{"mesh":5,"name":"xtras_2_windows_0"},{"mesh":6,"name":"xtras_2_Main_0"},{"children":[16],"name":"halerorvert","rotation":[-0.010824535973370075,8.195580448955297e-05,0.007570640183985233,0.9999128580093384],"translation":[0.0,136.9285430908203,484.60650634765625]},{"children":[17],"name":"halerorvert_2","rotation":[-0.7071068286895752,-1.556352937022863e-18,2.5913260757377334e-18,0.7071068286895752],"translation":[1.7763568394002505e-15,-279.4250793457031,-383.0163269042969]},{"mesh":7,"name":"halerorvert_2_Altbody_0"},{"children":[19],"name":"haleror","rotation":[0.03489987924695015,-0.0005889842286705971,-0.0006175953312776983,0.9993905425071716],"translation":[0.0,0.0,421.4756774902344]},{"children":[20],"name":"haleror_2","rotation":[-0.7071068286895752,-3.3540797358787196e-20,3.3540797358787196e-20,0.7071068286895752],"translation":[2.55351295663786e-15,-142.4965362548828,-319.885498046875]},{"mesh":8,"name":"haleror_2_Altbody_0"},{"children":[22,25],"name":"frontting","translation":[-1.2576267719268799,0.8403605818748474,-364.59814453125]},{"children":[23],"name":"propelting","translation":[0.0,-2.842170943040401e-14,1.1368683772161603e-13]},{"children":[24],"name":"xtras_3","rotation":[-0.7071068286895752,-0.0,0.0,0.7071068286895752],"translation":[-0.06975482404232025,-142.4965362548828,466.1883239746094]},{"mesh":9,"name":"xtras_3_xtra_0"},{"children":[26,27],"name":"xtras_4","rotation":[-0.7071068286895752,-0.0,0.0,0.7071068286895752],"translation":[-0.06975482404232025,-142.4965362548828,466.1883239746094]},{"mesh":10,"name":"xtras_4_Altbody_0"},{"mesh":11,"name":"xtras_4_xtra_0"}],"samplers":[{"magFilter":9729,"minFilter":9987,"wrapS":10497,"wrapT":10497}],"scene":0,"scenes":[{"name":"Sketchfab_Scene","nodes":[0]}],"textures":[{"sampler":0,"source":0},{"sampler":0,"source":1},{"sampler":0,"source":2},{"sampler":0,"source":3},{"sampler":0,"source":4},{"sampler":0,"source":5},{"sampler":0,"source":6},{"sampler":0,"source":7},{"sampler":0,"source":8},{"sampler":0,"source":9},{"sampler":0,"source":10},{"sampler":0,"source":11},{"sampler":0,"source":12},{"sampler":0,"source":13},{"sampler":0,"source":14},{"sampler":0,"source":15},{"sampler":0,"source":16},{"sampler":0,"source":17}]}